<svg width="15" height="15" viewBox="0 0 15 15" fill="none" xmlns="http://www.w3.org/2000/svg">
<path d="M15 14.9999H0L0.0500428 14.7928C0.162637 14.3117 1.1447 10.0489 1.44496 9.51433C1.63887 9.17357 2.65221 8.84618 4.17848 8.39183C4.56631 8.27824 4.92911 8.16465 5.20434 8.07111C5.57965 7.94416 5.66097 7.89072 5.67348 7.87736C5.70475 7.83059 5.77356 7.68358 5.81109 7.2426L6.12385 7.26933C6.09258 7.66354 6.03003 7.92413 5.92994 8.06444L5.90492 8.09784C5.84237 8.17134 5.72352 8.24483 5.29817 8.38514C5.01668 8.47869 4.65388 8.59228 4.2598 8.70587C3.35905 8.97313 1.85154 9.42747 1.70767 9.68137C1.50751 10.0355 0.831944 12.7749 0.394079 14.6592H14.5997C14.1618 12.7749 13.4862 10.0422 13.2861 9.68137C13.1422 9.42747 11.6347 8.97981 10.7402 8.70587C10.3899 8.59896 10.0584 8.50542 9.79566 8.41188C9.43286 8.29161 9.23895 8.21143 9.14512 8.14462L9.09508 8.09784C8.98874 7.97089 8.91993 7.73704 8.8824 7.3562L9.19516 7.32278C9.23269 7.73703 9.30776 7.85062 9.32652 7.87067C9.3578 7.8974 9.47665 7.95754 9.88949 8.09117C10.1522 8.17803 10.4837 8.27825 10.8278 8.37848C12.354 8.83282 13.3674 9.16021 13.555 9.50097C13.8616 10.0355 14.8436 14.2917 14.95 14.7794L15 14.9999Z" fill="#414042"/>
<path d="M5.29816 8.39866L5.20433 8.07794C5.57964 7.95099 5.66096 7.89753 5.67347 7.88417L5.92993 8.07125L5.90492 8.10467C5.84862 8.17817 5.72351 8.25167 5.29816 8.39866Z" fill="#414042"/>
<path d="M7.49372 8.07815C6.97453 8.07815 6.48037 7.89106 6.0988 7.5503C5.49205 7.00909 5.12925 6.22067 4.92908 5.65942C4.80398 5.3053 4.74142 4.93113 4.74142 4.55028V2.8064H10.2523V4.55028C10.2523 4.93113 10.1897 5.3053 10.0584 5.65942C9.85819 6.22067 9.49538 7.00909 8.88863 7.5503C8.50706 7.89106 8.0129 8.07815 7.49372 8.07815ZM5.05419 3.14048V4.55028C5.05419 4.89104 5.11048 5.22511 5.22308 5.54583C5.41073 6.07367 5.74851 6.80198 6.30523 7.29642C6.95577 7.87771 8.04418 7.87771 8.68846 7.29642C9.24518 6.80198 9.58296 6.06699 9.77061 5.54583C9.88321 5.23179 9.93951 4.89772 9.93951 4.55028V3.14048H5.05419Z" fill="#414042"/>
<path d="M10.2773 3.14035H4.71645V2.97331C4.71645 1.33632 5.96123 0 7.50002 0C9.03254 0 10.2836 1.32964 10.2836 2.97331V3.14035H10.2773ZM5.02921 2.80627H9.95831C9.877 1.42987 8.8011 0.334079 7.49376 0.334079C6.18642 0.34076 5.11052 1.42987 5.02921 2.80627Z" fill="#414042"/>
</svg>
